<svg xmlns="http://www.w3.org/2000/svg" width="59.518" height="60.6" viewBox="0 0 59.518 60.6">
  <defs>
    <style>
      .cls-1 {
        fill: #edf2f7;
      }
    </style>
  </defs>
  <g id="fast-food_1_" data-name="fast-food(1)" transform="translate(-0.5)">
    <path id="Trazado_1" data-name="Trazado 1" class="cls-1" d="M3.747,342.493H23.983L14.244,336H3.747a3.246,3.246,0,1,0,0,6.493Zm0,0" transform="translate(0 -290.55)"/>
    <path id="Trazado_2" data-name="Trazado 2" class="cls-1" d="M148.912,336H130.925l9.384,6.257Zm0,0" transform="translate(-112.783 -290.55)"/>
    <path id="Trazado_3" data-name="Trazado 3" class="cls-1" d="M14.832,236.986H41.844A14.086,14.086,0,0,0,27.817,224H14.832A14.086,14.086,0,0,0,.805,236.986Zm15.15-6.493h2.164v2.164H29.982Zm-3.246-4.329H28.9v2.164H26.735Zm-3.246,4.329h2.164v2.164H23.489Zm-3.246-4.329h2.164v2.164H20.242ZM17,230.493H19.16v2.164H17Zm-3.246-4.329h2.164v2.164H13.75ZM10.5,230.493h2.164v2.164H10.5Zm0,0" transform="translate(-0.264 -193.7)"/>
    <path id="Trazado_4" data-name="Trazado 4" class="cls-1" d="M3.746,400H.5v3.246a3.247,3.247,0,0,0,3.246,3.246H38.375a3.247,3.247,0,0,0,3.246-3.246V400Zm0,0" transform="translate(0 -345.893)"/>
    <path id="Trazado_5" data-name="Trazado 5" class="cls-1" d="M241.831,153.9a16.371,16.371,0,0,1,3.03,1.651l-.258-3.9,2.164-.143.4,5.97a16.175,16.175,0,0,1,4.7,11.415,1.082,1.082,0,0,1-1.082,1.082h-.028a5.3,5.3,0,0,1,0,6.493h.028a1.082,1.082,0,0,1,1.082,1.082v4.329a5.357,5.357,0,0,1-1.11,3.246h10.93L264.765,144h-23.64Zm4.62-6.73.155,2.164-2.159.153-.156-2.164Zm0,0" transform="translate(-208.076 -124.522)"/>
    <path id="Trazado_6" data-name="Trazado 6" class="cls-1" d="M233.814,104H216.5v3.246h30.3V104Zm0,0" transform="translate(-186.782 -89.932)"/>
    <path id="Trazado_7" data-name="Trazado 7" class="cls-1" d="M320.5,0h2.164V11.9H320.5Zm0,0" transform="translate(-276.714)"/>
    <path id="Trazado_8" data-name="Trazado 8" class="cls-1" d="M233.731,337.6l-8.63,6.276h7.494a3.24,3.24,0,0,0,1.136-6.276Zm0,0" transform="translate(-194.22 -291.935)"/>
  </g>
</svg>
