<svg xmlns="http://www.w3.org/2000/svg" width="35.383" height="53.075" viewBox="0 0 35.383 53.075">
  <defs>
    <style>
      .cls-1 {
        fill: #edf2f7;
      }
    </style>
  </defs>
  <path id="map-marker" class="cls-1" d="M26.537,17.692a8.522,8.522,0,0,0-2.592-6.254,8.522,8.522,0,0,0-6.254-2.592,8.522,8.522,0,0,0-6.254,2.592,8.522,8.522,0,0,0-2.592,6.254,8.522,8.522,0,0,0,2.592,6.254,8.522,8.522,0,0,0,6.254,2.592,8.522,8.522,0,0,0,6.254-2.592A8.522,8.522,0,0,0,26.537,17.692Zm8.846,0a14.543,14.543,0,0,1-1.14,6.185L21.666,50.621a4.2,4.2,0,0,1-1.641,1.8,4.474,4.474,0,0,1-4.665,0,3.971,3.971,0,0,1-1.607-1.8L1.14,23.876A14.543,14.543,0,0,1,0,17.692,17.042,17.042,0,0,1,5.184,5.184,17.052,17.052,0,0,1,17.692,0,17.037,17.037,0,0,1,30.2,5.184,17.048,17.048,0,0,1,35.383,17.692Z"/>
</svg>
