<svg xmlns="http://www.w3.org/2000/svg" width="88.348" height="51.526" viewBox="0 0 88.348 51.526">
  <defs>
    <style>
      .cls-1 {
        fill: #edf2f7;
      }
    </style>
  </defs>
  <path id="truck" class="cls-1" d="M82.7,120.428c-.277-.058-.539-.113-.772-.174-2.64-.686-3.845-1.063-4.736-2.783l-3.375-6.832a7.722,7.722,0,0,0-6.243-3.8H61.567V98.953A2.572,2.572,0,0,0,59,96.384l-41.845.042a2.431,2.431,0,0,0-2.418,2.549v2.332H4.015a4.015,4.015,0,0,0,0,8.03H14.734v3.848H7.716a4.015,4.015,0,0,0,0,8.029h7.018v3.848H11.417a4.015,4.015,0,0,0,0,8.029h3.317v4.025a2.572,2.572,0,0,0,2.569,2.569h4.353a9.622,9.622,0,0,0,19.04,0H58.312c.091,0,.185-.006.279-.012a9.622,9.622,0,0,0,19.041.012h6.252a4.468,4.468,0,0,0,4.464-4.463v-7.573C88.348,121.613,84.949,120.9,82.7,120.428ZM68.112,134.792a3.5,3.5,0,1,1-3.5,3.5A3.5,3.5,0,0,1,68.112,134.792Zm-6.544-14.908v-9.316h4.591a5.968,5.968,0,0,1,4.749,2.883l3,6.08q.1.185.2.353H61.567ZM34.674,138.289a3.5,3.5,0,1,1-3.5-3.5A3.5,3.5,0,0,1,34.674,138.289Z" transform="translate(0 -96.384)"/>
</svg>
